<svg height="512" viewBox="0 0 512 512" width="512" xmlns="http://www.w3.org/2000/svg"><g id="flat"><path d="m488 200-288 288-14.34-14.34-11.32-11.32-112.68-112.68-11.32-11.32-26.34-26.34 16-16h24v-24h24v-24h24v-24h24v-24h24v-24h24v-24h24v-24h24v-24l80-80z" fill="#02c26a"/><path d="m308.615 50.858h36.77v28.284h-36.77z" fill="#ffc431" transform="matrix(.707 -.707 .707 .707 49.814 250.262)"/><path d="m348.615 90.858h36.77v28.284h-36.77z" fill="#ffc431" transform="matrix(.707 -.707 .707 .707 33.246 290.262)"/><path d="m388.615 130.858h36.77v28.284h-36.77z" fill="#ffc431" transform="matrix(.707 -.707 .707 .707 16.677 330.262)"/><path d="m428.615 170.858h36.77v28.284h-36.77z" fill="#ffc431" transform="matrix(.707 -.707 .707 .707 .109 370.262)"/><path d="m201.775 240.402h124.451v79.196h-124.451z" fill="#8098ab" transform="matrix(.707 -.707 .707 .707 -120.666 268.686)"/><g fill="#00a64f"><path d="m49.373 319.996h45.255v16.009h-45.255z" transform="matrix(.707 -.707 .707 .707 -210.843 146.981)"/><path d="m100.686 280h22.627v16h-22.627z" transform="matrix(.707 -.707 .707 .707 -170.843 163.549)"/><path d="m132.686 248h22.627v16h-22.627z" transform="matrix(.707 -.707 .707 .707 -138.843 176.804)"/><path d="m164.686 216h22.627v16h-22.627z" transform="matrix(.707 -.707 .707 .707 -106.843 190.059)"/><path d="m196.686 184h22.627v16h-22.627z" transform="matrix(.707 -.707 .707 .707 -74.843 203.314)"/><path d="m228.686 152h22.627v16h-22.627z" transform="matrix(.707 -.707 .707 .707 -42.843 216.569)"/><path d="m260.686 120h22.627v16h-22.627z" transform="matrix(.707 -.707 .707 .707 -10.843 229.823)"/><path d="m172.544 441.996h50.912v16.009h-50.912z" transform="matrix(.707 -.707 .707 .707 -260.205 271.809)"/><path d="m228.686 400h22.627v16h-22.627z" transform="matrix(.707 -.707 .707 .707 -218.205 289.206)"/><path d="m260.686 368h22.627v16h-22.627z" transform="matrix(.707 -.707 .707 .707 -186.205 302.461)"/><path d="m292.686 336h22.627v16h-22.627z" transform="matrix(.707 -.707 .707 .707 -154.205 315.716)"/><path d="m324.686 304h22.627v16h-22.627z" transform="matrix(.707 -.707 .707 .707 -122.205 328.971)"/><path d="m356.686 272h22.627v16h-22.627z" transform="matrix(.707 -.707 .707 .707 -90.205 342.225)"/><path d="m388.686 240h22.627v16h-22.627z" transform="matrix(.707 -.707 .707 .707 -58.205 355.48)"/></g><path d="m229.373 195.029h45.255v33.941h-45.255z" fill="#718799" transform="matrix(.707 -.707 .707 .707 -76.098 240.284)"/><path d="m295.029 135.029h33.941v33.941h-33.941z" fill="#718799" transform="matrix(.707 -.707 .707 .707 -16.098 265.137)"/><path d="m352 172.686h16v22.627h-16z" fill="#00a64f" transform="matrix(.707 -.707 .707 .707 -24.666 308.451)"/><path d="m328 196.686h16v22.627h-16z" fill="#00a64f" transform="matrix(.707 -.707 .707 .707 -48.666 298.51)"/><path d="m153.373 264h45.255v16h-45.255z" fill="#00a64f" transform="matrix(.707 -.707 .707 .707 -140.784 204.118)"/><path d="m131.716 309.088h56.569v101.823h-56.569z" fill="#718799" transform="matrix(.707 -.707 .707 .707 -207.696 218.579)"/></g></svg>