<svg height="512" viewBox="0 0 512 512" width="512" xmlns="http://www.w3.org/2000/svg"><g id="flat"><path d="m24 272h464v96h-464z" fill="#7dafff"/><path d="m488 312h-34.158a15.97513 15.97513 0 0 0 -27.68408 0h-28.31592a15.97513 15.97513 0 0 0 -27.68408 0h-42.15792v16h42.158a15.97513 15.97513 0 0 0 27.68408 0h28.31592a15.97513 15.97513 0 0 0 27.68408 0h34.15792z" fill="#639aff"/><path d="m488 272v-32a64 64 0 0 0 -64-64h-336a64 64 0 0 0 -64 64v32z" fill="#548aff"/><g fill="#4976f2"><path d="m72 232h16v16h-16z"/><path d="m120 200h16v16h-16z"/><path d="m136 232h16v16h-16z"/><path d="m168 232h16v16h-16z"/><path d="m104 232h16v16h-16z"/><path d="m184 200h16v16h-16z"/><path d="m200 232h16v16h-16z"/><path d="m248 200h16v16h-16z"/><path d="m264 232h16v16h-16z"/><path d="m312 200h16v16h-16z"/><path d="m328 232h16v16h-16z"/><path d="m392 232h16v16h-16z"/><path d="m376 200h16v16h-16z"/><path d="m231.494 232h16v16h-16z"/><path d="m296 232h16v16h-16z"/><path d="m360 232h16v16h-16z"/><path d="m424 232h16v16h-16z"/><path d="m152 200h16v16h-16z"/><path d="m88 200h16v16h-16z"/><path d="m215.494 200h16v16h-16z"/><path d="m280 200h16v16h-16z"/><path d="m344 200h16v16h-16z"/><path d="m408 200h16v16h-16z"/></g><path d="m488 368v32a64 64 0 0 1 -64 64h-336a64 64 0 0 1 -64-64v-32z" fill="#548aff"/><path d="m72 392h16v16h-16z" fill="#4976f2"/><path d="m120 424h16v16h-16z" fill="#4976f2"/><path d="m136 392h16v16h-16z" fill="#4976f2"/><path d="m168 392h16v16h-16z" fill="#4976f2"/><path d="m104 392h16v16h-16z" fill="#4976f2"/><path d="m184 424h16v16h-16z" fill="#4976f2"/><path d="m200 392h16v16h-16z" fill="#4976f2"/><path d="m248 424h16v16h-16z" fill="#4976f2"/><path d="m264 392h16v16h-16z" fill="#4976f2"/><path d="m312 424h16v16h-16z" fill="#4976f2"/><path d="m328 392h16v16h-16z" fill="#4976f2"/><path d="m392 392h16v16h-16z" fill="#4976f2"/><path d="m376 424h16v16h-16z" fill="#4976f2"/><path d="m231.494 392h16v16h-16z" fill="#4976f2"/><path d="m296 392h16v16h-16z" fill="#4976f2"/><path d="m360 392h16v16h-16z" fill="#4976f2"/><path d="m424 392h16v16h-16z" fill="#4976f2"/><path d="m152 424h16v16h-16z" fill="#4976f2"/><path d="m88 424h16v16h-16z" fill="#4976f2"/><path d="m215.494 424h16v16h-16z" fill="#4976f2"/><path d="m280 424h16v16h-16z" fill="#4976f2"/><path d="m344 424h16v16h-16z" fill="#4976f2"/><path d="m408 424h16v16h-16z" fill="#4976f2"/><path d="m267.314 124.686a16.00121 16.00121 0 0 0 -22.62792 0l-11.31348-11.31348a32.035 32.035 0 0 1 45.25488 0z" fill="#bdd1f2"/><path d="m289.94141 102.05859a48.05571 48.05571 0 0 0 -67.88282 0l-11.31347-11.31347a64.07345 64.07345 0 0 1 90.50976 0z" fill="#bdd1f2"/><path d="m312.56885 79.43115a80.09244 80.09244 0 0 0 -113.1377 0l-11.31347-11.31347a96.1084 96.1084 0 0 1 135.76464 0z" fill="#bdd1f2"/><circle cx="256" cy="144" fill="#bdd1f2" r="8"/><circle cx="56" cy="336" fill="#3cde8d" r="8"/><circle cx="80" cy="336" fill="#3cde8d" r="8"/></g></svg>