<svg height="512" viewBox="0 0 512 512" width="512" xmlns="http://www.w3.org/2000/svg"><g id="flat"><path d="m232 112v40l24 24v16h88v-80z" fill="#08d175"/><path d="m232 112v40l24 24v192h-168v-256z" fill="#02c26a"/><path d="m392 488h-48l-48-56h96z" fill="#4976f2"/><path d="m216 432-24 32h-24l-16 24h-32v-56z" fill="#4976f2"/><path d="m24 24v24l32 32h288l48-56z" fill="#639aff"/><path d="m56 80v320h48v-32l-16-16v-224l16-16v-32z" fill="#548aff"/><path d="m56 400h288v32h-288z" fill="#639aff"/><path d="m56 432v56h32l16-24h24l24-32z" fill="#548aff"/><path d="m392 24-48 56v352l48 56h96v-464z" fill="#548aff"/><path d="m264 112h48v24h-48z" fill="#02c26a"/><path d="m256 192h88v96h-88z" fill="#3cde8d"/><path d="m256 288h88v80h-88z" fill="#08d175"/><path d="m288 232h24v16h-24z" fill="#08d175"/><path d="m88 264h168v16h-168z" fill="#00b55b"/><g fill="#08d175"><circle cx="136" cy="320" r="24"/><circle cx="208" cy="320" r="24"/><path d="m88 144h112v48h-112z"/></g><circle cx="120" cy="168" fill="#02c26a" r="8"/><circle cx="144" cy="168" fill="#02c26a" r="8"/><path d="m88 192h112v48h-112z" fill="#3cde8d"/><circle cx="120" cy="216" fill="#08d175" r="8"/><circle cx="144" cy="216" fill="#08d175" r="8"/><path d="m488 64h-40l-32-40h72z" fill="#4976f2"/><path d="m104 368h240v32h-240z" fill="#4976f2"/><path d="m104 80h240v32h-240z" fill="#4976f2"/></g></svg>