<svg height="512" viewBox="0 0 512 512" width="512" xmlns="http://www.w3.org/2000/svg"><g id="flat"><path d="m400 336a151.68733 151.68733 0 0 1 -7.53 47.37q-1.43994 4.425-3.1499 8.72a152.01287 152.01287 0 0 1 -29.3201 46.67l-52.07007 1.24a120.02072 120.02072 0 0 0 -59.92993-224v-32a151.89838 151.89838 0 0 1 152 152z" fill="#8098ab"/><path d="m400 336a151.68733 151.68733 0 0 1 -7.53 47.37 120.07553 120.07553 0 0 1 -68.18 45.27 120.08254 120.08254 0 0 0 39.31006-60.31 87.58751 87.58751 0 0 0 20.39994-56.33v-43.96a151.35018 151.35018 0 0 1 16 67.96z" fill="#718799"/><path d="m416 96a8.00008 8.00008 0 0 1 -8-8v-64a8 8 0 0 1 16 0v64a8.00008 8.00008 0 0 1 -8 8z" fill="#ffc431"/><path d="m464 200a81.94105 81.94105 0 0 0 24-57.94107v-30.05893h-144v30.05891a81.94112 81.94112 0 0 0 24 57.94109z" fill="#718799"/><path d="m24 104h144v96h-144z" fill="#718799"/><path d="m40 24h112v80h-112z" fill="#8098ab"/><path d="m480 200h-128l8 32h120z" fill="#556c80"/><path d="m424 200a53.8962 53.8962 0 0 0 24-44.84436v-67.15564h-64v67.15562a53.8962 53.8962 0 0 0 24 44.84438" fill="#8098ab"/><path d="m352 32h16v80h-16z" fill="#ffc431"/><path d="m464 32h16v80h-16z" fill="#ffc431"/><path d="m440 272h-48l-8-40h64z" fill="#62798c"/><path d="m112 264v72.00012a119.99988 119.99988 0 0 0 119.99988 119.99988h80.00012a119.96252 119.96252 0 0 0 35.68432-5.395l.25642-.07758a151.41582 151.41582 0 0 1 -99.94045 37.47258h-16.00044a151.99985 151.99985 0 0 1 -151.99985-151.99985v-72.00015z" fill="#718799"/><path d="m432 272v64a120 120 0 0 1 -120 120h-80.00012a119.99988 119.99988 0 0 1 -119.99988-119.99988v-16.00039a135.99973 135.99973 0 0 1 135.99973-135.99973l.00017 32a103.9999 103.9999 0 0 0 -103.9999 103.9999v16.0001a88 88 0 0 0 88 88h80a88 88 0 0 0 88-88v-64z" fill="#8098ab"/><path d="m56 200h80v64h-80z" fill="#556c80"/><g fill="#4b6275"><path d="m104 224h32v16h-32z"/><path d="m56 224h32v16h-32z"/></g></g></svg>