<svg height="512" viewBox="0 0 512 512" width="512" xmlns="http://www.w3.org/2000/svg"><g id="flat"><path d="m468.68018 100.68a16.00878 16.00878 0 0 0 11.31982 27.32h8v256h-8a16 16 0 0 0 0 32h8v72h-464v-80h8a16 16 0 1 0 0-32h-8v-184h8a16 16 0 1 0 0-32h-8v-136h464v72h-8a15.98649 15.98649 0 0 0 -11.31982 4.68z" fill="#02c26a"/><path d="m400 200v104a15.97886 15.97886 0 0 0 16 16 15.99568 15.99568 0 0 1 16 16v104a15.99571 15.99571 0 0 1 -16 16h-40a15.97886 15.97886 0 0 1 -16-16 15.99568 15.99568 0 0 0 -16-16h-32v16a15.99571 15.99571 0 0 1 -16 16h-80a15.99555 15.99555 0 0 1 -16-16v-16h-32a15.97843 15.97843 0 0 0 -16 16 15.99555 15.99555 0 0 1 -16 16h-40a15.99555 15.99555 0 0 1 -16-16v-48a15.99552 15.99552 0 0 1 16-16 15.99555 15.99555 0 0 0 16-16v-104a15.97843 15.97843 0 0 0 -16-16 15.99555 15.99555 0 0 1 -16-16v-48a15.99552 15.99552 0 0 1 16-16h16a15.99555 15.99555 0 0 0 16-16v-40a15.99552 15.99552 0 0 1 16-16h56v-16a15.99552 15.99552 0 0 1 16-16h80a15.99568 15.99568 0 0 1 16 16v16h32a15.99571 15.99571 0 0 0 16-16 15.99568 15.99568 0 0 1 16-16h40a15.99568 15.99568 0 0 1 16 16v96a15.99571 15.99571 0 0 1 -16 16 15.99568 15.99568 0 0 0 -16 16z" fill="#ffd873"/><path d="m56 56h40v40h-40z" fill="#e0edff"/><g fill="#00a64f"><path d="m48 120h16v16h-16z"/><path d="m48 264h16v16h-16z"/><path d="m72 264h16v16h-16z"/><path d="m48 288h16v16h-16z"/><path d="m72 288h16v16h-16z"/><path d="m48 312h16v16h-16z"/><path d="m72 312h16v16h-16z"/><path d="m424 208h16v16h-16z"/><path d="m448 208h16v16h-16z"/><path d="m424 232h16v16h-16z"/><path d="m448 232h16v16h-16z"/><path d="m424 256h16v16h-16z"/><path d="m448 256h16v16h-16z"/><path d="m80 120h24v16h-24z"/></g><rect fill="#ffc431" height="272" rx="32" width="208" x="160" y="120"/><path d="m312 72v16h-112v-16a15.99552 15.99552 0 0 1 16-16h80a15.99568 15.99568 0 0 1 16 16z" fill="#ffc431"/><path d="m312 424v16a15.99571 15.99571 0 0 1 -16 16h-80a15.99555 15.99555 0 0 1 -16-16v-16z" fill="#ffc431"/></g></svg>