<svg height="512" viewBox="0 0 512 512" width="512" xmlns="http://www.w3.org/2000/svg"><g id="flat"><path d="m88 181.33333-48.21771 8.03629a18.88735 18.88735 0 0 0 -15.78229 18.63038 18.88735 18.88735 0 0 0 15.78229 18.63036l32.21771 5.36964h16z" fill="#e0edff"/><path d="m168 168h272v232h-272z" fill="#548aff"/><path d="m296 192h112v32h-112z" fill="#4976f2"/><path d="m72 208h120v192h-120z" fill="#639aff"/><path d="m72 208 16-40h88l16 40z" fill="#7dafff"/><path d="m104 136h48v32h-48z" fill="#91c0ff"/><path d="m152 144h56v24h-56z" fill="#7dafff"/><path d="m440 184 32.21771 5.36962a18.88735 18.88735 0 0 1 15.78229 18.63038 18.88735 18.88735 0 0 1 -15.78229 18.63036l-32.21771 5.36964z" fill="#e0edff"/><circle cx="464" cy="208" fill="#bdd1f2" r="8"/><path d="m376 192-32-80h-96l-32 80z" fill="#91c0ff"/><circle cx="296" cy="296" fill="#e0edff" r="104"/><circle cx="296" cy="296" fill="#bdd1f2" r="72"/><path d="m248 248h96v96h-96z" fill="#a4b9e0"/><path d="m120 240h16v24h-16z" fill="#08d175"/><path d="m304 304h16v16h-16z" fill="#bdd1f2"/><path d="m272 304h16v16h-16z" fill="#bdd1f2"/><path d="m272 144h48v16h-48z" fill="#7dafff"/><circle cx="48" cy="208" fill="#bdd1f2" r="8"/></g></svg>