<svg height="512" viewBox="0 0 512 512" width="512" xmlns="http://www.w3.org/2000/svg"><g id="flat"><path d="m88 88h400v304h-344v40h-56z" fill="#02c26a"/><path d="m192 232h48v128h-48z" fill="#8098ab"/><path d="m64 96h-40v-24h64v416h-24z" fill="#e0edff"/><path d="m24 224h40v32h-40z" fill="#d1e4ff"/><path d="m24 376h40v32h-40z" fill="#d1e4ff"/><path d="m40 256h24v120h-24z" fill="#bdd1f2"/><path d="m208 392h160v32h-160z" fill="#ffc431"/><path d="m400 392h64v32h-64z" fill="#ffc431"/><path d="m232 392h16v32h-16z" fill="#ffb401"/><path d="m264 392h16v32h-16z" fill="#ffb401"/><path d="m296 392h16v32h-16z" fill="#ffb401"/><path d="m328 392h16v32h-16z" fill="#ffb401"/><path d="m424 392h16v32h-16z" fill="#ffb401"/><path d="m88 232h56v128h-56z" fill="#00b55b"/><path d="m192 320h48v16h-48z" fill="#718799"/><path d="m168 336h24v16h-24z" fill="#00b55b"/><path d="m240 336h24v16h-24z" fill="#00b55b"/><path d="m192 320h48v16h-48z" fill="#718799"/><path d="m168 304h24v16h-24z" fill="#00b55b"/><path d="m240 304h24v16h-24z" fill="#00b55b"/><path d="m192 288h48v16h-48z" fill="#718799"/><path d="m168 272h24v16h-24z" fill="#00b55b"/><path d="m240 272h24v16h-24z" fill="#00b55b"/><path d="m192 256h48v16h-48z" fill="#718799"/><path d="m168 240h24v16h-24z" fill="#00b55b"/><path d="m240 240h24v16h-24z" fill="#00b55b"/><path d="m304 264h96v80h-96z" fill="#8098ab"/><g fill="#00b55b"><path d="m280 272h24v16h-24z"/><path d="m280 296h24v16h-24z"/><path d="m280 320h24v16h-24z"/><path d="m400 272h24v16h-24z"/><path d="m400 296h24v16h-24z"/><path d="m400 320h24v16h-24z"/><path d="m320 240h16v24h-16z"/><path d="m344 240h16v24h-16z"/><path d="m368 240h16v24h-16z"/><path d="m360 192h16v24h-16z"/><path d="m384 192h16v24h-16z"/><path d="m328 144h24v16h-24z"/><path d="m328 168h24v16h-24z"/><path d="m408 144h24v16h-24z"/><path d="m408 168h24v16h-24z"/><path d="m360 112h16v24h-16z"/><path d="m384 112h16v24h-16z"/><path d="m320 344h16v24h-16z"/><path d="m344 344h16v24h-16z"/><path d="m368 344h16v24h-16z"/></g><path d="m352 136h56v56h-56z" fill="#8098ab"/><path d="m456 120h32v96h-32z" fill="#ffc431"/><path d="m456 176h32v16h-32z" fill="#ffb401"/><path d="m456 144h32v16h-32z" fill="#ffb401"/><path d="m120 120h160v80h-160z" fill="#8098ab"/><path d="m280 152h-24v-32h-16v32h-16v-32h-16v32h-16v-32h-16v32h-16v-32h-16v32h-24v16h24v32h16v-32h16v32h16v-32h16v32h16v-32h16v32h16v-32h24z" fill="#718799"/><path d="m88 384h32v16h-32z" fill="#00b55b"/><path d="m448 320h40v40h-40z" fill="#ffc431"/></g></svg>