<svg height="512" viewBox="0 0 512 512" width="512" xmlns="http://www.w3.org/2000/svg"><g id="flat"><path d="m173.813 338.187-29.813 29.813-40 8-24-24 8-40 31.883-31.883z" fill="#d1e4ff"/><path d="m236 400a28.97051 28.97051 0 0 0 20.48526-8.48527l191.02955-191.02954a28.97024 28.97024 0 0 0 8.48519-20.48506v-.00025a28.97022 28.97022 0 0 0 -8.48521-20.48507l-127.02986-127.02964a28.97025 28.97025 0 0 0 -20.48504-8.48517 28.97024 28.97024 0 0 0 -20.48506 8.48519l-191.02956 191.02954a28.97051 28.97051 0 0 0 -8.48527 20.48527 28.97051 28.97051 0 0 0 8.48527 20.48526l127.02946 127.02947a28.97051 28.97051 0 0 0 20.48527 8.48527z" fill="#548aff"/><path d="m367.029 147.716h33.941v56.569h-33.941z" fill="#4976f2" transform="matrix(.707 -.707 .707 .707 -11.98 323.078)"/><path d="m328 154.745h16v90.51h-16z" fill="#4976f2" transform="matrix(.707 -.707 .707 .707 -43.009 296.167)"/><path d="m448 368-40 40-40 8-24-24 8-40 40-40z" fill="#d1e4ff"/><path d="m344 392-52.28427 52.28427a40 40 0 0 1 -28.28427 11.71573h-184.80407a22.62739 22.62739 0 0 1 -22.62739-22.62739 22.6274 22.6274 0 0 1 6.62741-16l41.37259-41.37261-24-24-39.43147 39.43147a56.5685 56.5685 0 0 0 -16.56853 40v.00008a56.56848 56.56848 0 0 0 56.56849 56.56845h185.60813a72 72 0 0 0 50.91169-21.08831l50.91169-50.91169z" fill="#bdd1f2"/><path d="m488 328-40 40-22.34-22.34-11.32-11.32-22.34-22.34 40-40 22.34 22.34 11.32 11.32z" fill="#ffc431"/><path d="m411.716 311.996h56.569v16.009h-56.569z" fill="#ffb401" transform="matrix(.707 -.707 .707 .707 -97.401 404.853)"/></g></svg>