<svg height="512" viewBox="0 0 512 512" width="512" xmlns="http://www.w3.org/2000/svg"><g id="flat"><path d="m352 376h32v72h-32z" fill="#f78e00"/><path d="m80 24h352v352h-352z" fill="#8098ab"/><path d="m432 288h-24l-21.712-54.279v-67.442l21.712-54.279h24z" fill="#718799"/><path d="m80 288h24l21.712-54.279v-67.442l-21.712-54.279h-24z" fill="#718799"/><path d="m400 200a143.51865 143.51865 0 1 1 -5.24-38.62 143.55049 143.55049 0 0 1 5.24 38.62z" fill="#4b6275"/><g fill="#718799"><circle cx="112" cy="56" r="8"/><circle cx="136" cy="56" r="8"/><circle cx="112" cy="80" r="8"/><circle cx="112" cy="344" r="8"/><circle cx="112" cy="320" r="8"/><circle cx="136" cy="344" r="8"/><circle cx="400" cy="344" r="8"/><circle cx="376" cy="344" r="8"/><circle cx="400" cy="320" r="8"/><circle cx="400" cy="56" r="8"/><circle cx="400" cy="80" r="8"/><circle cx="376" cy="56" r="8"/></g><path d="m243.34009 156.68-19.34009 11.32-69.82007-69.82a143.85986 143.85986 0 0 1 63.2-36.94l-1.3812 2.76242a59.42 59.42 0 0 0 4.79386 61.109z" fill="#62798c"/><path d="m224 232-69.82007 69.82007a143.86057 143.86057 0 0 1 -36.93993-63.20007l2.76237 1.38118a59.42 59.42 0 0 0 61.10914-4.79377l31.56842-22.54741z" fill="#62798c"/><path d="m294.62012 338.76 1.3812-2.76242a59.42 59.42 0 0 0 -4.79386-61.109l-22.54755-31.56858 19.34009-11.32 69.82007 69.82007a143.86032 143.86032 0 0 1 -63.19995 36.93993z" fill="#62798c"/><path d="m394.76 161.38-2.76239-1.38119a59.42 59.42 0 0 0 -61.10911 4.79375l-31.56843 22.54744-11.32007-19.34 69.82007-69.82a143.86 143.86 0 0 1 36.93993 63.2z" fill="#62798c"/><path d="m208 416h96v72h-96z" fill="#d1e4ff"/><path d="m232 416h16v32h-16z" fill="#c8dbf7"/><path d="m264 416h16v32h-16z" fill="#c8dbf7"/><path d="m304 448h72a8 8 0 0 0 8-8v-64h32v72a32 32 0 0 1 -32 32h-80z" fill="#ffa100"/><path d="m32 56h48v288h-48z" fill="#d1e4ff"/><path d="m32 304h48v16h-48z" fill="#c8dbf7"/><path d="m32 272h48v16h-48z" fill="#c8dbf7"/><path d="m32 240h48v16h-48z" fill="#c8dbf7"/><path d="m32 208h48v16h-48z" fill="#c8dbf7"/><path d="m32 176h48v16h-48z" fill="#c8dbf7"/><path d="m32 144h48v16h-48z" fill="#c8dbf7"/><path d="m32 112h48v16h-48z" fill="#c8dbf7"/><path d="m32 80h48v16h-48z" fill="#c8dbf7"/><path d="m432 56h48v288h-48z" fill="#d1e4ff"/><path d="m432 304h48v16h-48z" fill="#c8dbf7"/><path d="m432 272h48v16h-48z" fill="#c8dbf7"/><path d="m432 240h48v16h-48z" fill="#c8dbf7"/><path d="m432 208h48v16h-48z" fill="#c8dbf7"/><path d="m432 176h48v16h-48z" fill="#c8dbf7"/><path d="m432 144h48v16h-48z" fill="#c8dbf7"/><path d="m432 112h48v16h-48z" fill="#c8dbf7"/><path d="m432 80h48v16h-48z" fill="#c8dbf7"/><circle cx="256" cy="200" fill="#718799" r="48"/><path d="m128 376h32v72h-32z" fill="#f78e00"/><path d="m208 448h-72a8 8 0 0 1 -8-8v-64h-32v72a32 32 0 0 0 32 32h80z" fill="#ffa100"/></g></svg>