<svg height="512" viewBox="0 0 512 512" width="512" xmlns="http://www.w3.org/2000/svg"><g id="flat"><path d="m488 128-100 100-111.61-104.39 99.61-99.61 52.2 48.48 11.74 10.9z" fill="#ffc431"/><g fill="#ffb401"><path d="m364.686 80h22.627v16h-22.627z" transform="matrix(.707 -.707 .707 .707 47.911 291.661)"/><path d="m412.686 128h22.627v16h-22.627z" transform="matrix(.707 -.707 .707 .707 28.029 339.664)"/><path d="m439.94 83.38-85.04 85.04-11.32-11.32 84.62-84.62z"/></g><path d="m171.3137 476.6863a38.62739 38.62739 0 0 1 -27.3137 11.3137 38.62739 38.62739 0 0 1 -27.31368-11.3137l-81.37262-81.3726a38.62739 38.62739 0 0 1 -11.3137-27.3137 38.62739 38.62739 0 0 1 11.3137-27.3137l236.6863-236.6863 32.22 12.08249a156.6928 156.6928 0 0 1 55.78 35.91751 156.6928 156.6928 0 0 1 35.91749 55.78l12.08251 32.22z" fill="#548aff"/><path d="m208.48527 128.48527 169.37261 169.37261a48.28422 48.28422 0 0 1 14.14212 34.14212 48.28422 48.28422 0 0 0 14.14212 34.1421l25.37261 25.37261a28.97051 28.97051 0 0 1 8.48527 20.48529 28.97051 28.97051 0 0 1 -8.48527 20.48526l-47.02946 47.02946a28.97051 28.97051 0 0 1 -20.48527 8.48528 28.97051 28.97051 0 0 1 -20.48526-8.48527l-25.37261-25.37261a48.28422 48.28422 0 0 0 -34.14213-14.14212 48.28422 48.28422 0 0 1 -34.1421-14.14212l-169.37263-169.37261a28.97051 28.97051 0 0 1 -8.48527-20.48527 28.97051 28.97051 0 0 1 8.48527-20.48526l87.02946-87.02946a28.97051 28.97051 0 0 1 20.48527-8.48528 28.97051 28.97051 0 0 1 20.48527 8.48527z" fill="#d1e4ff"/><circle cx="232" cy="280" fill="#548aff" r="48"/><path d="m116.402 196h79.196v16h-79.196z" fill="#bdd1f2" transform="matrix(.707 -.707 .707 .707 -98.56 170.07)"/></g></svg>