<svg height="512" viewBox="0 0 512 512" width="512" xmlns="http://www.w3.org/2000/svg"><g id="flat"><path d="m63.667 120.236h384.666v271.529h-384.666z" fill="#8098ab" transform="matrix(.707 -.707 .707 .707 -106.039 256)"/><path d="m296 72-73.53906 70.46088 64.44824 64.44818-158.90918 145.09094 64 64a33.6062 33.6062 0 0 1 47.76074.23694l.23926.24426 129.53906-126.94214 70.46094-73.53906z" fill="#62798c"/><path d="m271.843 288.157-47.843 47.843 24 24 49.32-49.32z" fill="#556c80"/><circle cx="296" cy="216" fill="#e8f2ff" r="104"/><path d="m192 288v64l-32 32-64-64a33.94108 33.94108 0 0 0 0-48l56-56 53.25926 53.25926z" fill="#ffc431"/><circle cx="296" cy="216" fill="#c8dbf7" r="32"/><path d="m137.345 272.941 112.044-15.686 4.437 15.373-103.171 46.431z" fill="#ffd873"/><circle cx="160" cy="344" fill="#ffb401" r="8"/><circle cx="72" cy="296" fill="#62798c" r="8"/><circle cx="216" cy="440" fill="#62798c" r="8"/><circle cx="144" cy="296" fill="#ffe28f" r="24"/></g></svg>