<svg height="512" viewBox="0 0 512 512" width="512" xmlns="http://www.w3.org/2000/svg"><g id="flat"><path d="m123.045 334.477-55.367 27.684v44.733l36.322 73.106 16 8 56-24z" fill="#548aff"/><path d="m176 480-72-168 32-32 24 8 72 168-8 24z" fill="#4976f2"/><path d="m388.955 334.477 55.367 27.684v44.733l-36.322 73.106-16 8-56-24z" fill="#548aff"/><path d="m40 296-16-40h56v40z" fill="#4976f2"/><path d="m472 296 16-40h-56v40z" fill="#4976f2"/><path d="m80 256v-.00018a175.99983 175.99983 0 0 1 175.99982-175.99982h.00036a175.99983 175.99983 0 0 1 175.99982 175.99982v.00018h56v-.00023c0-128.12994-103.86983-231.99977-231.99977-231.99977h-.00046c-128.12994 0-231.99977 103.86983-231.99977 231.99977v.00023z" fill="#548aff"/><path d="m464 296v48l-16 16v40a16 16 0 0 1 -16 16 16 16 0 0 1 -16-16v-48l16-16v-40z" fill="#7dafff"/><path d="m432 320h32v16h-32z" fill="#639aff"/><path d="m48 296v48l16 16v40a16 16 0 0 0 16 16 16 16 0 0 0 16-16v-48l-16-16v-40z" fill="#7dafff"/><path d="m48 320h32v16h-32z" fill="#639aff"/><path d="m336 480 72-168-32-32-24 8-72 168 8 24z" fill="#4976f2"/><circle cx="384" cy="448" fill="#3cde8d" r="8"/></g></svg>