<svg height="512" viewBox="0 0 512 512" width="512" xmlns="http://www.w3.org/2000/svg"><g id="flat"><path d="m104 96a8 8 0 0 1 8-8h48l93.8059 65.66413 31.57 23.25318 62.05207 41.368 14.85714-24.76191-59.63865-39.75909-24.81493-21.7271-109.83153-76.03721h-64a32 32 0 0 0 -32 32v400h32z" fill="#556c80"/><path d="m318.6383 122.383 29.19734-51.09535a31.60645 31.60645 0 0 0 4.16436-15.68119 31.60642 31.60642 0 0 0 -31.60642-31.60646h-216.39358a64 64 0 0 0 -64 64v400h32v-400a32 32 0 0 1 32-32h209.73524a6.26476 6.26476 0 0 1 6.26476 6.26476 6.26479 6.26479 0 0 1 -.89277 3.22319l-25.22487 42.04146z" fill="#62798c"/><path d="m280.23156 368-.23-31.6893a32 32 0 0 1 31.99844-32.3107h16a32 32 0 0 1 32 32v32z" fill="#8098ab"/><path d="m136 320h48l24-16v-32l-24-24h-48z" fill="#4976f2"/><path d="m184 144v88l-5.33008 8-26.66992 40v31.46a32.54582 32.54582 0 0 1 -63.41992 10.29l-8.58008-25.75-40-40v-16a119.90936 119.90936 0 0 1 120-120 24.002 24.002 0 0 1 24 24z" fill="#548aff"/><circle cx="120" cy="312" fill="#ffc431" r="8"/><path d="m133.65991 197.65991-40 40a8.0079 8.0079 0 0 1 -5.65991 2.34009h-48a120.54466 120.54466 0 0 1 1.06006-16h43.62988l37.65015-37.66z" fill="#4976f2"/><path d="m184 224v8l-5.33008 8h-39.35986l-21.65015 21.65991-11.31982-11.31991 24-24a8.00778 8.00778 0 0 1 5.65991-2.34z" fill="#4976f2"/><path d="m216 144h40l32-40 40 24-48 80h-64z" fill="#8098ab"/><path d="m208 336h16a40 40 0 0 0 40-40v-16a40 40 0 0 0 -40-40h-16z" fill="#8098ab"/><path d="m480 352a119.90936 119.90936 0 0 1 -120 120h-16l-40-40-25.75-8.58008a32.54567 32.54567 0 0 1 10.29-63.41992h31.46l40-26.67 8-5.33h88a24.002 24.002 0 0 1 24 24z" fill="#548aff"/><circle cx="304" cy="392" fill="#ffc431" r="8"/><path d="m413.65991 389.65991-37.65991 37.65015v43.62988a120.54466 120.54466 0 0 1 -16 1.06006v-48a8.00818 8.00818 0 0 1 2.34009-5.66l40-40z" fill="#4976f2"/><path d="m376 328v48a8.0079 8.0079 0 0 1 -2.34009 5.65991l-24 24-11.31982-11.31991 21.65991-21.65006v-39.35994l8-5.33z" fill="#4976f2"/><path d="m400 279.999h32v64h-32z" fill="#ffc431" transform="matrix(0 -1 1 0 104.001 727.999)"/><path d="m384 295.999v-40l-40-32 24-40 80 48v64z" fill="#8098ab"/><path d="m408 296h16v32h-16z" fill="#ffb401"/><path d="m183.999 144h32v64h-32z" fill="#ffc431" transform="matrix(-1 0 0 -1 399.997 352)"/><path d="m184 168h32v16h-32z" fill="#ffb401"/></g></svg>