<svg height="512" viewBox="0 0 512 512" width="512" xmlns="http://www.w3.org/2000/svg"><g id="flat"><path d="m424 136v-40l-40-24h-24l-16 24v40z" fill="#4976f2"/><path d="m88 136v-40l40-24h24l16 24v40z" fill="#4976f2"/><path d="m488 240v136a48.004 48.004 0 0 1 -48 48 51.19807 51.19807 0 0 1 -39.36-18.43994l-24.64-29.56006h-240l-24.64 29.56006a51.21109 51.21109 0 0 1 -39.36 18.43994 47.99956 47.99956 0 0 1 -48-48v-136l48-104 80-40h24l8 8h144l8-8h24l80 40z" fill="#548aff"/><circle cx="392" cy="200" fill="#62798c" r="24"/><path d="m168 192a40.57527 40.57527 0 0 1 -.8 8 40.052 40.052 0 0 1 -31.2 31.2 40.39753 40.39753 0 0 1 -16 0 40.052 40.052 0 0 1 -31.2-31.2 40.4005 40.4005 0 0 1 0-16 40.05184 40.05184 0 0 1 31.2-31.19995 40.39753 40.39753 0 0 1 16 0 40.05184 40.05184 0 0 1 31.2 31.19995 40.57436 40.57436 0 0 1 .8 8z" fill="#718799"/><g fill="#62798c"><path d="m136 152.80005v23.19995a8 8 0 0 1 -16 0v-23.19995a40.39753 40.39753 0 0 1 16 0z"/><path d="m120 192a7.99786 7.99786 0 0 1 -8 8h-23.2a40.4005 40.4005 0 0 1 0-16h23.2a7.99778 7.99778 0 0 1 8 8z"/><path d="m136 208v23.2a40.39753 40.39753 0 0 1 -16 0v-23.2a8 8 0 0 1 16 0z"/><path d="m168 192a40.57527 40.57527 0 0 1 -.8 8h-23.2a8 8 0 0 1 0-16h23.2a40.57436 40.57436 0 0 1 .8 8z"/></g><circle cx="192" cy="272" fill="#718799" r="32"/><circle cx="192" cy="272" fill="#62798c" r="8"/><circle cx="256" cy="272" fill="#02c26a" r="8"/><circle cx="352" cy="128" fill="#02c26a" r="8"/><circle cx="160" cy="128" fill="#02c26a" r="8"/><path d="m376 376h-240l32-40h176z" fill="#4976f2"/><circle cx="320" cy="272" fill="#718799" r="32"/><circle cx="320" cy="272" fill="#62798c" r="8"/><path d="m328 104-24 80h-96l-24-80z" fill="#4976f2"/><circle cx="392" cy="176" fill="#ef5e3b" r="16"/><circle cx="368" cy="200" fill="#7dafff" r="16"/><circle cx="392" cy="224" fill="#ffc431" r="16"/><circle cx="416" cy="200" fill="#02c26a" r="16"/></g></svg>