<svg height="512" viewBox="0 0 512 512" width="512" xmlns="http://www.w3.org/2000/svg"><g id="flat"><path d="m440 384v-272a16 16 0 0 0 -16-16h-336a16 16 0 0 0 -16 16v272z" fill="#486be0"/><path d="m376.00025 288.00018-70.40025-52.80018a95.9999 95.9999 0 0 0 -57.6-19.2v96h128z" fill="#4976f2"/><path d="m24 384h464v16a95.26659 95.26659 0 0 1 -52.84436 16h-358.31125a95.26662 95.26662 0 0 1 -52.84439-16z" fill="#d1e4ff"/><path d="m248 384v-240h-176v240z" fill="#ffc431"/><g fill="#ffb401"><path d="m96 200h40v16h-40z"/><path d="m96 232h24v16h-24z"/><path d="m96 168h24v16h-24z"/><path d="m96 264h40v16h-40z"/><path d="m96 296h24v16h-24z"/><path d="m96 328h40v16h-40z"/><path d="m248 192v-16h-64v-32h-16v240h16v-32h64v-16h-64v-24h64v-16h-64v-24h64v-16h-64v-24h64v-16h-64v-24z"/></g><path d="m440 216a104.23825 104.23825 0 0 0 -69.7317 26.75856l-20.53649 18.48285a104.23835 104.23835 0 0 1 -69.73181 26.75859h-32v96h192z" fill="#548aff"/></g></svg>