<svg height="512" viewBox="0 0 512 512" width="512" xmlns="http://www.w3.org/2000/svg"><g id="flat"><path d="m288 448v-24l-16-24v-48h-32v48l-16 24v24z" fill="#8098ab"/><path d="m320 56v216a24.00619 24.00619 0 0 1 -24 24h-80a24.00619 24.00619 0 0 1 -24-24v-216a32.004 32.004 0 0 1 32-32h64a32.004 32.004 0 0 1 32 32z" fill="#8098ab"/><path d="m285.1077 358.82461 66.8923-46.82461v-104h-32v88l-49.49014 35.3501a24.96365 24.96365 0 0 1 -14.50986 4.6499 24.96365 24.96365 0 0 1 -14.50985-4.6499l-49.49015-35.3501v-88h-32v104l66.8923 46.82461a50.75775 50.75775 0 0 0 29.1077 9.17539 50.75775 50.75775 0 0 0 29.1077-9.17539z" fill="#62798c"/><path d="m120 232h40v56h-40z" fill="#8098ab"/><path d="m352 232h40v56h-40z" fill="#8098ab"/><g fill="#718799"><path d="m360 488v-16l-56-24h-96l-56 24v16z"/><path d="m320 184v88a24.00619 24.00619 0 0 1 -24 24h-80a24.00619 24.00619 0 0 1 -24-24v-88z"/><path d="m216 144h16v16h-16z"/><path d="m248 144h16v16h-16z"/><path d="m280 144h16v16h-16z"/><path d="m216 112h16v16h-16z"/><path d="m248 112h16v16h-16z"/><path d="m280 112h16v16h-16z"/><path d="m216 80h16v16h-16z"/><path d="m248 80h16v16h-16z"/><path d="m280 80h16v16h-16z"/><path d="m216 48h16v16h-16z"/><path d="m248 48h16v16h-16z"/><path d="m280 48h16v16h-16z"/></g></g></svg>