<svg height="512" viewBox="0 0 512 512" width="512" xmlns="http://www.w3.org/2000/svg"><g id="flat"><path d="m24 32h456v288h-456z" fill="#486be0"/><path d="m24 80h176v240h-176z" fill="#ffc431"/><g fill="#ffb401"><path d="m48 136h40v16h-40z"/><path d="m48 168h24v16h-24z"/><path d="m48 104h24v16h-24z"/><path d="m48 200h40v16h-40z"/><path d="m48 232h24v16h-24z"/><path d="m48 264h40v16h-40z"/><path d="m200 128v-16h-64v-32h-16v240h16v-32h64v-16h-64v-24h64v-16h-64v-24h64v-16h-64v-24h64v-16h-64v-24z"/></g><path d="m200 152h32a96 96 0 0 1 57.6 19.2l102.4 76.8h-192z" fill="#4976f2"/><path d="m192 320h128v104h-128z" fill="#d1e4ff"/><path d="m192 424h128v32h-128z" fill="#e8f2ff"/><path d="m208 456 8 8h16l8-8z" fill="#bdd1f2"/><path d="m272 456 8 8h16l8-8z" fill="#bdd1f2"/><path d="m256 376a8.00008 8.00008 0 0 1 -8-8v-48a8 8 0 0 1 16 0v48a8.00008 8.00008 0 0 1 -8 8z" fill="#bdd1f2"/><path d="m480 152h-56a104.23825 104.23825 0 0 0 -69.7317 26.75856l-20.53649 18.48285a104.23835 104.23835 0 0 1 -69.73181 26.75859h-64v96h280z" fill="#548aff"/></g></svg>