<svg height="512" viewBox="0 0 512 512" width="512" xmlns="http://www.w3.org/2000/svg"><g id="flat"><path d="m408 110.05005v245.94995a131.99505 131.99505 0 0 1 -211.19995 105.6001l-4.80005-3.6001-78.4-58.8a24.012 24.012 0 0 1 -9.6-19.2v-114.06006a24.01064 24.01064 0 0 1 7.03-16.97l48.97-48.96994v-40l32-32v-72.68994a28.6086 28.6086 0 0 1 36.93994-27.37012l67.06006 20.41016 16 4.8699 69.58008 21.17017a37.25618 37.25618 0 0 1 26.41992 35.65988z" fill="#8098ab"/><path d="m408 207.05v17.89l-103.02-51.51-120.53 54.79-6.62-14.57 118.17-53.71v-111.59l16 4.87v105.84z" fill="#718799"/><path d="m192 128v330l-78.4-58.8a24.012 24.012 0 0 1 -9.6-19.2v-114.06006a24.01064 24.01064 0 0 1 7.03-16.97l48.97-48.96994v-40z" fill="#718799"/><path d="m152 248h40v80h-40z" fill="#ffc431"/><path d="m152 280h40v16h-40z" fill="#ffb401"/><path d="m280 112h48v64h-48z" fill="#62798c"/><rect fill="#08d175" height="48" rx="8" width="32" x="288" y="216"/><path d="m370.65 448a131.98 131.98 0 0 1 -173.85 13.6001l-4.8-3.6001-78.4-58.8a24.012 24.012 0 0 1 -9.6-19.2v-28l88 62.12012 39.7 28.02a32.02968 32.02968 0 0 0 18.45991 5.85988z" fill="#62798c"/><path d="m192 414.12012v43.87988l-78.4-58.8a24.012 24.012 0 0 1 -9.6-19.2v-28z" fill="#556c80"/></g></svg>