<svg height="512" viewBox="0 0 512 512" width="512" xmlns="http://www.w3.org/2000/svg"><g id="flat"><path d="m24 24v32h56v432h32v-464z" fill="#e0edff"/><path d="m112 168h376v232h-376z" fill="#02c26a"/><path d="m112 288h112v80h-112z" fill="#718799"/><path d="m296 272h56v80h-56z" fill="#718799"/><g fill="#00b55b"><path d="m272 328h24v16h-24z"/><path d="m272 304h24v16h-24z"/><path d="m272 280h24v16h-24z"/><path d="m352 328h24v16h-24z"/><path d="m352 304h24v16h-24z"/><path d="m352 280h24v16h-24z"/><path d="m224 344h24v16h-24z"/><path d="m224 320h24v16h-24z"/><path d="m224 296h24v16h-24z"/><path d="m304 248h16v24h-16z"/><path d="m328 248h16v24h-16z"/><path d="m304 352h16v24h-16z"/><path d="m328 352h16v24h-16z"/></g><path d="m112 216h40v40h-40z" fill="#718799"/><path d="m184 216h32v40h-32z" fill="#00b55b"/><path d="m240 248h32v16h-32z" fill="#00b55b"/><path d="m240 224h32v16h-32z" fill="#00b55b"/><path d="m264 192h16v16h-16z" fill="#00b55b"/><path d="m296 192h16v16h-16z" fill="#00b55b"/><path d="m328 192h16v16h-16z" fill="#00b55b"/><path d="m168 400h64v40h-64z" fill="#ffc431"/><path d="m424 400h64v40h-64z" fill="#ffc431"/><path d="m264 400h128v40h-128z" fill="#ffc431"/><path d="m192 400h16v40h-16z" fill="#ffb401"/><path d="m288 400h16v40h-16z" fill="#ffb401"/><path d="m320 400h16v40h-16z" fill="#ffb401"/><path d="m352 400h16v40h-16z" fill="#ffb401"/><path d="m448 400h16v40h-16z" fill="#ffb401"/><path d="m416.804 288h16v48h-16z" fill="#62798c"/><path d="m400.804 368 8-32h32l8 32z" fill="#718799"/><path d="m435.7168 244.68652a16.019 16.019 0 0 0 -22.62793 0l-11.31446-11.31445a32.03852 32.03852 0 0 1 45.25489 0z" fill="#ffc431"/><path d="m390.46094 222.05957-11.31446-11.31445a64.00025 64.00025 0 0 1 90.51075.001l-11.31446 11.3125a47.999 47.999 0 0 0 -67.88183.001z" fill="#ffc431"/><circle cx="424.402" cy="264" fill="#ffc431" r="8"/><path d="m176 288h16v80h-16z" fill="#62798c"/></g></svg>