<svg height="512" viewBox="0 0 512 512" width="512" xmlns="http://www.w3.org/2000/svg"><g id="flat"><path d="m344 392-52.28427 52.28427a40 40 0 0 1 -28.28427 11.71573h-184.80407a22.62739 22.62739 0 0 1 -22.62739-22.62739 22.6274 22.6274 0 0 1 6.62741-16l75.56744-75.56744-22.17766-25.82234-75.44866 75.44864a56.5685 56.5685 0 0 0 -16.56853 40v.00008a56.56848 56.56848 0 0 0 56.56849 56.56845h185.60813a72 72 0 0 0 50.91169-21.08831l50.91169-50.91169z" fill="#718799"/><path d="m432 200-39.3 40.7-168.10991 174.11006a23.9903 23.9903 0 0 1 -33.85009.67994l-149.01-142.53a23.99485 23.99485 0 0 1 -.37988-34.31006l174.64988-174.64994 40-40 64 64 8 32 32 8z" fill="#548aff"/><path d="m432 200-39.3 40.7-176.7-176.7 40-40 48 48 24 48 40 16z" fill="#4976f2"/><path d="m448 368-40 40-40 8-24-24 8-40 40-40z" fill="#8098ab"/><path d="m488 328-40 40-22.34-22.34-11.32-11.32-22.34-22.34 40-40 22.34 22.34 11.32 11.32z" fill="#ffc431"/><path d="m411.716 311.995h56.569v16.009h-56.569z" fill="#ffb401" transform="matrix(.707 -.707 .707 .707 -97.401 404.853)"/><path d="m280.3999 88.3999 79.2002 79.2002c37.02368-3.1377 65.0935-37.40625 64.3999-71.6001-3.52319-92.6582-132.626-95.32959-143.6001-7.6001zm71.6001 31.6001a24 24 0 1 1 24-24 23.99994 23.99994 0 0 1 -24 24z" fill="#d1e4ff"/><path d="m315.999 35.833h16.001v192.333h-16.001z" fill="#486be0" transform="matrix(.707 -.707 .707 .707 1.559 267.765)"/></g></svg>