<svg height="512" viewBox="0 0 512 512" width="512" xmlns="http://www.w3.org/2000/svg"><g id="flat"><path d="m488 201.02a36.9332 36.9332 0 0 1 -10.43018 25.73l-242.48974 249.83984a37.613 37.613 0 0 1 -54.18994-.23l-146.15014-153.09984a38.84647 38.84647 0 0 1 1.06006-54.69995l240.66967-233.38012a39.62762 39.62762 0 0 1 55.03027-.13993l.68018.6499 144.46 138.68994a35.014 35.014 0 0 1 2.43994 2.58008 36.923 36.923 0 0 1 8.91988 24.06008z" fill="#556c80"/><path d="m240 424-24 24-114.34-114.34-11.32-11.32-26.34-26.34 24-24 26.34 26.34 11.32 11.32z" fill="#718799"/><path d="m479.08008 176.96-239.08008 247.04-152-152 244.18018-236.31006 144.46 138.68994a35.014 35.014 0 0 1 2.4399 2.58012z" fill="#8098ab"/><circle cx="152" cy="360" fill="#8098ab" r="24"/><path d="m152 392a32 32 0 1 1 32-32 32.03667 32.03667 0 0 1 -32 32zm0-48a16 16 0 1 0 16 16 16.01833 16.01833 0 0 0 -16-16z" fill="#62798c"/><path d="m91.029 307.995h33.941v16.009h-33.941z" fill="#62798c" transform="matrix(.707 -.707 .707 .707 -191.813 168.922)"/><path d="m179.034 396.008h33.941v15.994h-33.941z" fill="#62798c" transform="matrix(.707 -.707 .707 .707 -228.266 256.927)"/><g fill="#718799"><path d="m138.34277 293.65723-16-16a8.00122 8.00122 0 0 1 0-11.31446l16-16 11.31446 11.31446-10.34375 10.34277 10.34375 10.34277z"/><path d="m429.65723 197.65723-11.31446-11.31446 10.34375-10.34277-10.34375-10.34277 11.31446-11.31446 16 16a8.00122 8.00122 0 0 1 0 11.31446z"/><path d="m346.34277 101.65723-10.34277-10.34375-10.34277 10.34375-11.31446-11.31446 16-16a8.003 8.003 0 0 1 11.31446 0l16 16z"/><path d="m240 392a7.97772 7.97772 0 0 1 -5.65723-2.34277l-16-16 11.31446-11.31446 10.34277 10.34375 10.34277-10.34375 11.31446 11.31446-16 16a7.97772 7.97772 0 0 1 -5.65723 2.34277z"/></g><path d="m488 296-16 48-164.53027 141.03a12.34535 12.34535 0 0 1 -8.03955 2.97 11.438 11.438 0 0 1 -11.43018-11.42993 11.27785 11.27785 0 0 1 .81982-4.24 11.57784 11.57784 0 0 1 2.32032-3.64014l148.85986-156.68993z" fill="#556c80"/><path d="m488 296-16 48-32-32z" fill="#718799"/></g></svg>