<svg height="512" viewBox="0 0 512 512" width="512" xmlns="http://www.w3.org/2000/svg"><g id="flat"><path d="m328 328v56.87012a16.15069 16.15069 0 0 1 -5.3 11.8999l-70.14 63.12012a15.70122 15.70122 0 0 1 -4.56 2.87986 15.87349 15.87349 0 0 1 -6.14 1.23h-121.86a15.99568 15.99568 0 0 1 -16-16v-120z" fill="#d1e4ff"/><path d="m104 216h224v112h-224z" fill="#639aff"/><path d="m24 216h80a0 0 0 0 1 0 0v208a0 0 0 0 1 0 0h-56a24 24 0 0 1 -24-24v-184a0 0 0 0 1 0 0z" fill="#548aff"/><path d="m328 216h160a0 0 0 0 1 0 0v184a24 24 0 0 1 -24 24h-136a0 0 0 0 1 0 0v-208a0 0 0 0 1 0 0z" fill="#548aff"/><path d="m24 168h440a24 24 0 0 1 24 24v24a0 0 0 0 1 0 0h-464a0 0 0 0 1 0 0v-48a0 0 0 0 1 0 0z" fill="#7dafff"/><path d="m168 248h48v48h-48z" fill="#08d175"/><g fill="#548aff"><circle cx="136" cy="248" r="8"/><circle cx="136" cy="272" r="8"/><circle cx="136" cy="296" r="8"/><path d="m248 248h16v16h-16z"/><path d="m280 248h16v16h-16z"/><path d="m248 280h16v16h-16z"/><path d="m280 280h16v16h-16z"/></g><path d="m360 320h96v72h-96z" fill="#4976f2"/><path d="m368 280h16v16h-16z" fill="#8760e6"/><path d="m400 280h16v16h-16z" fill="#ffc431"/><path d="m432 280h16v16h-16z" fill="#7dafff"/><path d="m56 344h16v48h-16z" fill="#4976f2"/><path d="m24 168v-4.24887a24 24 0 0 1 19.38205-23.55153l388.61795-76.1996 8 32-384 72z" fill="#639aff"/><path d="m326.31 392a15.80058 15.80058 0 0 1 -3.61 4.77l-70.14 63.12012a15.70122 15.70122 0 0 1 -4.56 2.87988v-54.77a15.99552 15.99552 0 0 1 16-16z" fill="#e8f2ff"/><path d="m416 320h16v72h-16z" fill="#486be0"/><path d="m384 320h16v72h-16z" fill="#486be0"/></g></svg>