<svg height="512" viewBox="0 0 512 512" width="512" xmlns="http://www.w3.org/2000/svg"><g id="flat"><path d="m488 152-31.61 32.39014-264.78 271.21972-31.61 32.39014-50.34-50.34009 5.65-5.65991a11.31371 11.31371 0 0 0 -16-16l-5.65 5.65991-20-20 6.34-6.34985a11.31371 11.31371 0 0 0 -16-16l-6.34 6.34985-33.66-33.65991 336-328 32 32-4.68994 4.68994a11.31371 11.31371 0 1 0 16 16l4.68994-4.68994 16 16-4.68994 4.68994a11.31371 11.31371 0 0 0 16 16l4.68994-4.68994z" fill="#02c26a"/><path d="m264 288-34.34 34.34-11.32 11.32-28.68 28.68-11.32 11.32-34.34 34.34-64-64 34.34-34.34 11.32-11.32 28.68-28.68 11.32-11.32 34.34-34.34z" fill="#718799"/><path d="m143.996 290.745h16.009v90.51h-16.009z" fill="#62798c" transform="matrix(.707 -.707 .707 .707 -193.069 205.894)"/><path d="m183.996 250.745h16.009v90.51h-16.009z" fill="#62798c" transform="matrix(.707 -.707 .707 .707 -153.068 222.463)"/><path d="m456.39 184.39-18.12 18.56-11.18 11.46-12.54 12.83-11.17 11.45-12.53 12.84-11.19 11.45-12.53 12.84-11.17 11.45-12.54 12.83-11.18 11.46-12.53 12.84-11.18 11.44-12.53 12.84-11.18 11.45-12.54 12.84-11.17 11.45-12.53 12.84-11.19 11.45-12.53 12.84-11.17 11.45-22.08 22.61-23.61-23.61 22.01-22.68 11.14-11.48 12.5-12.87 11.15-11.49 12.5-12.87 11.14-11.48 12.49-12.88 11.15-11.49 12.49-12.87 11.15-11.48 12.5-12.88 11.14-11.48 12.5-12.88 11.14-11.48 12.5-12.88 11.15-11.48 12.5-12.87 11.14-11.48 12.49-12.88 11.15-11.49 18.07-18.61z" fill="#ffc431"/><g fill="#ffb401"><path d="m224.86 421.55-11.17 11.45-23.68-23.68 11.14-11.48z"/><path d="m248.58 397.26-11.19 11.45-23.74-23.74 11.15-11.49z"/><path d="m272.28 372.97-11.17 11.45-23.81-23.81 11.14-11.48z"/><path d="m296 348.68-11.18 11.45-23.89-23.88 11.15-11.49z"/><path d="m319.71 324.4-11.18 11.44-23.96-23.95 11.15-11.48z"/><path d="m343.42 300.1-11.18 11.46-24.02-24.03 11.14-11.48z"/><path d="m367.13 275.82-11.17 11.45-24.1-24.1 11.14-11.48z"/><path d="m390.85 251.53-11.19 11.45-24.16-24.17 11.15-11.48z"/><path d="m414.55 227.24-11.17 11.45-24.23-24.23 11.14-11.48z"/><path d="m438.27 202.95-11.18 11.46-24.31-24.31 11.15-11.49z"/></g><path d="m408 144-34.34 34.34-11.32 11.32-28.68 28.68-11.32 11.32-34.34 34.34-64-64 34.34-34.34 11.32-11.32 28.68-28.68 11.32-11.32 34.34-34.34z" fill="#718799"/><path d="m287.996 146.745h16.009v90.51h-16.009z" fill="#62798c" transform="matrix(.707 -.707 .707 .707 -49.068 265.541)"/><path d="m327.996 106.745h16.009v90.51h-16.009z" fill="#62798c" transform="matrix(.707 -.707 .707 .707 -9.067 282.109)"/></g></svg>