<svg height="512" viewBox="0 0 512 512" width="512" xmlns="http://www.w3.org/2000/svg"><g id="flat"><path d="m40 304h432a16 16 0 0 1 16 16v88a0 0 0 0 1 0 0h-464a0 0 0 0 1 0 0v-88a16 16 0 0 1 16-16z" fill="#548aff"/><path d="m48 408h416v24h-416z" fill="#486be0"/><path d="m24 432h464a0 0 0 0 1 0 0v16a16 16 0 0 1 -16 16h-432a16 16 0 0 1 -16-16v-16a0 0 0 0 1 0 0z" fill="#548aff"/><path d="m64 464h56a0 0 0 0 1 0 0 24 24 0 0 1 -24 24h-8a24 24 0 0 1 -24-24 0 0 0 0 1 0 0z" fill="#4976f2"/><path d="m392 464h56a0 0 0 0 1 0 0 24 24 0 0 1 -24 24h-8a24 24 0 0 1 -24-24 0 0 0 0 1 0 0z" fill="#4976f2"/><path d="m64 344h384v64h-384z" fill="#4976f2"/><g fill="#08d175"><path d="m96 368h56v16h-56z"/><circle cx="288" cy="376" r="8"/><circle cx="328" cy="376" r="8"/><circle cx="368" cy="376" r="8"/><circle cx="408" cy="376" r="8"/></g><path d="m128 304-24-280h-16l-24 280z" fill="#4976f2"/><path d="m448 304-24-280h-16l-24 280z" fill="#4976f2"/></g></svg>