<svg height="512" viewBox="0 0 512 512" width="512" xmlns="http://www.w3.org/2000/svg"><g id="flat"><path d="m264 344v56h-240v-104h192z" fill="#548aff"/><path d="m168 296 320-152h-144l-320 152z" fill="#486be0"/><path d="m264 344h224v56h-224z" fill="#4976f2"/><path d="m488 344h-224l-48-48h224z" fill="#486be0"/><g fill="#639aff"><path d="m320 312h16v16h-16z"/><path d="m352 312h16v16h-16z"/><path d="m384 312h16v16h-16z"/><path d="m472 328h-40v-16h24z"/><path d="m288 312v16h-40l-16-16z"/></g><path d="m24 296 32-80 208-104 80 32z" fill="#548aff"/><path d="m264 112h152l72 32h-144z" fill="#4976f2"/><path d="m376 296h.00007a71.99993 71.99993 0 0 0 71.99993-71.99993v-24.00007h-160v24.00007a71.99993 71.99993 0 0 1 -71.99993 71.99993z" fill="#d1e4ff"/><path d="m264 344v8h-168v-16h160z" fill="#4976f2"/><path d="m24 336h40v16h-40z" fill="#4976f2"/></g></svg>