<svg height="512" viewBox="0 0 512 512" width="512" xmlns="http://www.w3.org/2000/svg"><g id="flat"><path d="m424 152v64h16v248a24 24 0 0 1 -24 24h-88l-16-16h-112l-16 16h-88a24 24 0 0 1 -24-24v-256h32v-120h-32v-40a24 24 0 0 1 24-24h264l80 80v48z" fill="#548aff"/><path d="m72 88h32a0 0 0 0 1 0 0v72a0 0 0 0 1 0 0h-16a16 16 0 0 1 -16-16v-56a0 0 0 0 1 0 0z" fill="#7dafff"/><rect fill="#d1e4ff" height="352" rx="24" width="256" x="136" y="88"/><path d="m392 160h-256v-48a24 24 0 0 1 24-24h208a24 24 0 0 1 24 24z" fill="#7dafff"/><path d="m160 184h64v16h-64z" fill="#b2c6eb"/><path d="m248 184h32v16h-32z" fill="#b2c6eb"/><rect fill="#bdd1f2" height="88" rx="8" width="192" x="168" y="320"/><g fill="#a4b9e0"><path d="m232 368h64v16h-64z"/><path d="m312 368h24v16h-24z"/></g></g></svg>