<svg height="512" viewBox="0 0 512 512" width="512" xmlns="http://www.w3.org/2000/svg"><g id="flat"><path d="m229.116 122.884 34.884-34.884 56 56-35.007 35.007z" fill="#62798c"/><path d="m424 112-32.89 32.89-18.57-18.12-6.13-5.97-14.12-13.78-6.13-5.97-14.12-13.78-6.13-5.97-23.9-23.31 33.99-33.99 18.34 18.34 11.32 11.32z" fill="#ffc431"/><path d="m488 176-31.94 31.94-50.4-45.6 34.34-34.34 18.34 18.34 11.32 11.32z" fill="#ffc431"/><path d="m425.373 159.995h45.255v16.009h-45.255z" fill="#ffb401" transform="matrix(.707 -.707 .707 .707 12.422 365.99)"/><path d="m365.66 53.66-33.62 33.61-.08.08-6.05-6.05-5.26-5.26 33.69-33.7z" fill="#ffb401"/><path d="m385.66 73.66-33.37 33.36-.08.08-6.05-6.05-5.26-5.26 33.45-33.44z" fill="#ffb401"/><path d="m405.66 93.66-33.12 33.11-.08.08-6.05-6.05-5.26-5.26 33.2-33.19z" fill="#ffb401"/><path d="m280 24-256 256 208 208 256-256zm-192 272a16 16 0 1 1 16-16 16.00008 16.00008 0 0 1 -16 16zm144 144a16 16 0 1 1 16-16 16.00008 16.00008 0 0 1 -16 16z" fill="#02c26a"/><g fill="#00a64f"><circle cx="112" cy="320" r="8"/><circle cx="128" cy="304" r="8"/><circle cx="128" cy="336" r="8"/><circle cx="144" cy="320" r="8"/><circle cx="144" cy="352" r="8"/><circle cx="160" cy="336" r="8"/></g><path d="m163.029 364h33.941v16h-33.941z" fill="#ffc431" transform="matrix(.707 -.707 .707 .707 -210.317 236.219)"/><path d="m179.029 380h33.941v16h-33.941z" fill="#ffc431" transform="matrix(.707 -.707 .707 .707 -216.945 252.218)"/><path d="m120 232 120-120 160 152-120 128z" fill="#718799"/><path d="m351.029 151.029h33.941v33.941h-33.941z" fill="#00b55b" transform="matrix(.707 -.707 .707 .707 -11.009 309.421)"/><path d="m387.029 196h33.941v16h-33.941z" fill="#00b55b" transform="matrix(.707 -.707 .707 .707 -25.927 345.403)"/><path d="m411.029 220h33.941v16h-33.941z" fill="#00b55b" transform="matrix(.707 -.707 .707 .707 -35.868 369.401)"/><path d="m256 202.745h16v90.51h-16z" fill="#62798c" transform="matrix(.707 -.707 .707 .707 -98.039 259.314)"/><path d="m208 188.686h16v22.627h-16z" fill="#62798c" transform="matrix(.707 -.707 .707 .707 -78.156 211.314)"/><path d="m244 159.716h16v56.569h-16z" fill="#62798c" transform="matrix(.707 -.707 .707 .707 -59.127 233.255)"/><path d="m332 243.029h16v33.941h-16z" fill="#62798c" transform="matrix(.707 -.707 .707 .707 -84.264 316.569)"/><path d="m176 225.373h16v45.255h-16z" fill="#62798c" transform="matrix(.707 -.707 .707 .707 -121.47 202.745)"/><path d="m88 304a24 24 0 1 1 24-24 24.02718 24.02718 0 0 1 -24 24zm0-32a8 8 0 1 0 8 8 8.00917 8.00917 0 0 0 -8-8z" fill="#00b55b"/><path d="m232 448a24 24 0 1 1 24-24 24.02718 24.02718 0 0 1 -24 24zm0-32a8 8 0 1 0 8 8 8.00917 8.00917 0 0 0 -8-8z" fill="#00b55b"/><path d="m288.49365 122.82031-11.31347-11.31445 23.50634-23.50586-10.34326-10.34277 11.31348-11.31446 16 16a8.00034 8.00034 0 0 1 0 11.31446z" fill="#00b55b"/><path d="m368 112h-28.68994l-29.65015 29.65991-11.31982-11.32007 32-32a8.00766 8.00766 0 0 1 5.65991-2.33984h16z" fill="#00b55b"/></g></svg>