<svg height="512" viewBox="0 0 512 512" width="512" xmlns="http://www.w3.org/2000/svg"><g id="flat"><path d="m368 416v40h-64a16 16 0 0 0 -16-16 16 16 0 0 0 -16 16h-64v-40z" fill="#ffc431"/><path d="m24 24v32h64v432h32v-464z" fill="#e0edff"/><path d="m488 416h-336v32h-32v-280h368z" fill="#02c26a"/><path d="m232 416h16v40h-16z" fill="#ffb401"/><path d="m328 416h16v40h-16z" fill="#ffb401"/><path d="m120 216h48v200h-48z" fill="#00b55b"/><path d="m228 212h64v40h-64z" fill="#718799" transform="matrix(0 -1 1 0 28 492)"/><circle cx="384" cy="216" fill="#00a64f" r="16"/><circle cx="328" cy="216" fill="#00a64f" r="16"/><path d="m216 312h56v56h-56z" fill="#718799"/><g fill="#00b55b"><path d="m192 344h24v16h-24z"/><path d="m192 320h24v16h-24z"/><path d="m272 344h24v16h-24z"/><path d="m272 320h24v16h-24z"/><path d="m224 288h16v24h-16z"/><path d="m248 288h16v24h-16z"/><path d="m224 368h16v24h-16z"/><path d="m248 368h16v24h-16z"/><path d="m192 200h24v16h-24z"/><path d="m192 232h24v16h-24z"/><path d="m192 264h24v16h-24z"/></g><path d="m320 312h32v32h-32z" fill="#ffb401"/><path d="m352 352v-48l40-24v96z" fill="#ffc431"/><path d="m422.62793 351.0293-11.31445-11.3125a16.019 16.019 0 0 0 0-22.62793l11.31445-11.31446a32.03851 32.03851 0 0 1 0 45.25489z" fill="#00a64f"/><path d="m445.25391 373.65723-11.3125-11.31446a47.999 47.999 0 0 0 -.001-67.88183l11.31445-11.31446a64.00025 64.00025 0 0 1 -.001 90.51075z" fill="#00a64f"/><path d="m88 96h-16a16 16 0 0 0 -16-16 16 16 0 0 0 -16 16h-16v-40h64z" fill="#c8dbf7"/><path d="m120 368h48v16h-48z" fill="#00a64f"/><path d="m120 328h48v16h-48z" fill="#00a64f"/><path d="m120 288h48v16h-48z" fill="#00a64f"/><path d="m120 248h48v16h-48z" fill="#00a64f"/><path d="m240 224h40v16h-40z" fill="#556c80"/></g></svg>