<svg height="512" viewBox="0 0 512 512" width="512" xmlns="http://www.w3.org/2000/svg"><g id="flat"><path d="m32 208h96v32h-96z" fill="#e0edff"/><path d="m32 72h64v80h-64z" fill="#e0edff"/><path d="m40 24h48v48h-48z" fill="#ffc431"/><path d="m112.752 208a168.01923 168.01923 0 0 1 167.24783-152h.00034a167.99984 167.99984 0 0 1 167.99983 167.99983v48.00035a183.99981 183.99981 0 0 1 -183.99982 183.99982h-.00036a183.99981 183.99981 0 0 1 -183.99982-183.99982v-32.00018h-32v32.00022c0 119.29338 96.7064 215.99978 215.99978 215.99978h.00044c119.29338 0 215.99978-96.7064 215.99978-215.99978v-48.00042c0-110.4568-89.543-199.9998-199.9998-199.9998h-.0004c-105.0712 0-191.21823 81.024-199.36914 184z" fill="#d1e4ff"/><path d="m48 152h32v56h-32z" fill="#d1e4ff"/><path d="m264 128h64v80h-64z" fill="#e0edff" transform="matrix(0 -1 1 0 128 464)"/><path d="m208 144h48v48h-48z" fill="#ffc431" transform="matrix(0 -1 1 0 64 400)"/><path d="m80 272.00018a183.99981 183.99981 0 0 0 183.99982 183.99982h.00036a183.99981 183.99981 0 0 0 183.99982-183.99982v-40.00018a80 80 0 0 0 -80-80h-32v32h32a48 48 0 0 1 48 48v40.00015a151.99985 151.99985 0 0 1 -151.99985 151.99985h-.0003a151.99985 151.99985 0 0 1 -151.99985-151.99985v-32.00015h-32z" fill="#bdd1f2"/></g></svg>