<svg height="512" viewBox="0 0 512 512" width="512" xmlns="http://www.w3.org/2000/svg"><g id="flat"><rect fill="#8098ab" height="464" rx="24" width="160" x="120" y="24"/><circle cx="200" cy="64" fill="#08d175" r="8"/><path d="m68 380h48v56h-48z" fill="#ffc431" transform="matrix(0 -1 1 0 -316 500)"/><path d="m68 300h48v56h-48z" fill="#ffc431" transform="matrix(0 -1 1 0 -236 420)"/><path d="m320 435.15562a95.26659 95.26659 0 0 0 16 52.84438h56a95.26659 95.26659 0 0 0 16-52.84436v-358.31126a95.26659 95.26659 0 0 0 -16-52.84438h-56a95.26659 95.26659 0 0 0 -16 52.84436z" fill="#8098ab"/><g fill="#62798c"><path d="m344 72h40v80h-40z"/><path d="m344 184h40v80h-40z"/><path d="m344 288h16v32h-16z"/><path d="m368 288h16v88h-16z"/><rect height="56" rx="12" width="24" x="352" y="400"/></g></g></svg>