<?xml version="1.0"?>
<svg xmlns="http://www.w3.org/2000/svg" viewBox="0 0 512 512" width="512" height="512"><g id="flat"><path d="M288,408l32-96h0l18.7018,6.23394A34.41524,34.41524,0,0,0,349.58481,320h0A34.41515,34.41515,0,0,0,384,285.58485V224h10.23394A13.76605,13.76605,0,0,0,408,210.23394v0a13.76616,13.76616,0,0,0-.70643-4.35321L400,184,248,32H202.57338A125.77693,125.77693,0,0,0,98.56512,87.05129l-.00007.0001a125.77688,125.77688,0,0,0-18.77353,98.01045l8.3004,37.3518L128,264l24,40-18.67237,56.0171L136,456H288Z" style="fill:#ffceb6"/><rect x="101.55953" y="152.20101" width="84.88094" height="39.59799" transform="translate(-79.44574 152.20101) rotate(-45)" style="fill:#a4b9e0"/><path d="M208,256H187.88224a28.68625,28.68625,0,0,1-20.28425-8.402l0,0A80.56848,80.56848,0,0,1,144,190.62745v-.00006A22.62739,22.62739,0,0,1,166.62739,168h0a22.6274,22.6274,0,0,1,16,6.62741L192,184l16,16Z" style="fill:#ffceb6"/><path d="M64,224l32,40h32l13.16535-52.6614A24.55523,24.55523,0,0,0,136.98747,190.65l0,0a24.55521,24.55521,0,0,0-37.00733-2.63Z" style="fill:#e0edff"/><path d="M394,96H256l-60.09889,59.08516a29.56708,29.56708,0,0,1-41.9973-.54516l0,0a29.56706,29.56706,0,0,1-1.98033-38.80615L224,24h28.77544a146.03,146.03,0,0,1,91.22422,31.99973Z" style="fill:#d1e4ff"/><circle cx="176" cy="136" r="8" style="fill:#bdd1f2"/><path d="M272,96l56-40h96l43.59815,72.66358A30.88868,30.88868,0,0,1,472,144.55566v0a30.88864,30.88864,0,0,1-12.35545,24.71091L440,184H320Z" style="fill:#e0edff"/><path d="M376,144.56006a30.81071,30.81071,0,0,1-3.26,13.81006,31.12867,31.12867,0,0,1-7.82007,9.88989c-.40991.34009-.83984.67993-1.27978,1.01L351.99,178,344,184H320L272,96l25.87988-18.48L311.01,68.14014,328,56l43.6001,72.65991A30.91384,30.91384,0,0,1,376,144.56006Z" style="fill:#c8dbf7"/><path d="M364.91992,168.26c-.40991.34009-.83984.67993-1.27978,1.01L351.99,178,297.87988,77.52,311.01,68.14014Z" style="fill:#b2c6eb"/><path d="M320.001,320.002a8.00756,8.00756,0,0,1-2.53125-.41211l-48-16a8.0005,8.0005,0,0,1,5.06054-15.17968l48,16A8.00139,8.00139,0,0,1,320.001,320.002Z" style="fill:#ffbfa1"/><path d="M392,488l-16-40-88-40-14.28459,14.28459A60.48419,60.48419,0,0,1,230.94663,440h-.00006a60.48417,60.48417,0,0,1-55.06277-35.45565l-13.95254-30.69558A37.27206,37.27206,0,0,0,128,352h0L40,384V488Z" style="fill:#548aff"/><path d="M200,224h-7.43706a16,16,0,0,1-13.3128-7.1248l-8.37072-12.55608A2.7781,2.7781,0,0,1,173.19094,200h24.03095A2.77811,2.77811,0,0,1,200,202.77811Z" style="fill:#ffbfa1"/><path d="M208,264H187.88184a36.45018,36.45018,0,0,1-25.94141-10.74512A87.99123,87.99123,0,0,1,136,190.62793a8,8,0,0,1,16,0,72.08746,72.08746,0,0,0,21.25488,51.3125A20.54641,20.54641,0,0,0,187.88184,248H208a8,8,0,0,1,0,16Z" style="fill:#ffbfa1"/></g></svg>
