<svg height="512" viewBox="0 0 512 512" width="512" xmlns="http://www.w3.org/2000/svg"><g id="flat"><path d="m296 432v-32l-16-32v-72h-48v72l-16 32v32z" fill="#8098ab"/><path d="m384 488a48.52919 48.52919 0 0 0 -29.41261-44.60537h-.00006a140.9261 140.9261 0 0 0 -55.51349-11.39463h-86.14768a140.9261 140.9261 0 0 0 -55.51349 11.39457h-.00006a48.52919 48.52919 0 0 0 -29.41261 44.60543z" fill="#556c80"/><path d="m400 168a143.88707 143.88707 0 1 1 -3.33008-30.89014 143.99853 143.99853 0 0 1 3.33008 30.89014z" fill="#62798c"/><path d="m400 168a144 144 0 1 1 -284.66992-30.89014l29.49 9.83008a22.18706 22.18706 0 0 1 15.17992 21.06006 96 96 0 0 0 192 0 22.19765 22.19765 0 0 1 15.18018-21.06006l29.48974-9.83008a144.2244 144.2244 0 0 1 3.33008 30.89014z" fill="#556c80"/><circle cx="256" cy="168" fill="#8098ab" r="96"/><circle cx="256" cy="168" fill="#84d8e8" r="32"/><g fill="#08d175"><circle cx="192" cy="168" r="8"/><circle cx="197.03" cy="192.87" r="8"/><circle cx="197.451" cy="142.155" r="8"/><circle cx="320" cy="168" r="8"/><circle cx="314.97" cy="143.13" r="8"/><circle cx="314.549" cy="193.845" r="8"/></g><path d="m256 240a71.98409 71.98409 0 0 1 -36.00684-9.6377l8.01368-13.8496a56.0734 56.0734 0 0 0 55.98632 0l8.01368 13.8496a71.98409 71.98409 0 0 1 -36.00684 9.6377z" fill="#718799"/><path d="m283.99316 119.4873a56.0734 56.0734 0 0 0 -55.98632 0l-8.01368-13.8496a72.08036 72.08036 0 0 1 72.01368 0z" fill="#718799"/><path d="m216 400h80v32h-80z" fill="#62798c"/></g></svg>